<?xml version="1.0" encoding="iso-8859-1"?>
<!-- Generator: Adobe Illustrator 19.0.0, SVG Export Plug-In . SVG Version: 6.00 Build 0)  -->
<svg version="1.1" id="Layer_1" xmlns="http://www.w3.org/2000/svg" xmlns:xlink="http://www.w3.org/1999/xlink" x="0px" y="0px"
	 viewBox="0 0 512.002 512.002" style="enable-background:new 0 0 512.002 512.002;" xml:space="preserve">
<g>
	<polygon style="fill:#1F544A;" points="207.958,100.44 207.958,22.432 231.372,58.956 231.372,101.289 	"/>
	<polyline style="fill:#1F544A;" points="304.513,100.44 304.513,22.432 281.099,58.956 281.099,100.44 304.513,100.44 	"/>
</g>
<path style="fill:#328777;" d="M207.958,135.753V100.44c0-26.663,21.614-48.278,48.278-48.278s48.278,21.614,48.278,48.278v33.295
	L207.958,135.753z"/>
<path style="opacity:0.42;fill:#1F544A;enable-background:new    ;" d="M278.822,57.084c4.281,7.207,6.746,15.619,6.746,24.611
	v9.271c0,13.348-10.673,24.246-24.018,24.526l-52.25,1.092v19.17l96.555-2.017V100.44C305.856,81.402,294.831,64.944,278.822,57.084
	z"/>
<path style="fill:#3EAC92;" d="M177.047,232.427V188.94l0,0c0-44.293,36.239-80.531,80.531-80.531l0,0
	c44.293,0,80.531,36.239,80.531,80.531l0,0v43.487L177.047,232.427L177.047,232.427z"/>
<path style="opacity:0.29;fill:#1F544A;enable-background:new    ;" d="M290.526,115.526c10.724,13.683,17.152,30.872,17.152,49.501
	l0,0v10.1c0,18.439-14.948,33.387-33.387,33.387h-97.245v23.913h161.063V188.94l0,0
	C338.109,156.374,318.506,128.181,290.526,115.526z"/>
<path style="fill:#328777;" d="M280.858,472.144h-50.586c-42.935,0-77.74-34.806-77.74-77.74V235.576
	c0-7.332,5.944-13.276,13.276-13.276h179.514c7.332,0,13.276,5.944,13.276,13.276v158.828
	C358.597,437.338,323.792,472.144,280.858,472.144z"/>
<polygon style="fill:#57EECF;" points="308.232,222.3 255.565,274.969 202.897,222.3 "/>
<path style="opacity:0.29;fill:#1F544A;enable-background:new    ;" d="M345.322,222.3h-89.757v249.843h25.293
	c42.935,0,77.74-34.806,77.74-77.74V235.576C358.597,228.243,352.654,222.3,345.322,222.3z"/>
<path d="M506.641,478.991l-44.867-13.836c-9.646-2.974-17.274-10.077-20.927-19.488l-17.235-44.394
	c-5.968-15.372-19.185-26.478-35.356-29.708l-21.215-4.237V250.769l18.24,3.643c11.055,2.209,20.09,9.8,24.17,20.309l17.235,44.394
	c5.344,13.765,16.501,24.155,30.612,28.506l44.867,13.836c0.745,0.23,1.499,0.339,2.24,0.339c3.245,0,6.249-2.096,7.256-5.359
	c1.237-4.008-1.012-8.26-5.02-9.496l-44.867-13.836c-9.646-2.974-17.274-10.077-20.927-19.488l-17.235-44.394
	c-5.968-15.372-19.185-26.477-35.356-29.708l-21.561-4.306c-1.726-9.63-10.065-16.981-20.142-17.165V192.26
	c0-7.45-0.934-14.686-2.682-21.601l21.881-4.675c14.756-3.153,26.64-13.503,31.788-27.688l14.361-39.571
	c6.311-17.392,20.009-30.692,37.581-36.488l32.407-10.69c3.984-1.314,6.147-5.609,4.834-9.592c-1.314-3.984-5.609-6.148-9.592-4.834
	l-32.407,10.69c-22.022,7.264-39.191,23.932-47.102,45.732l-14.361,39.572c-3.349,9.229-11.081,15.964-20.681,18.015l-23.745,5.073
	c-5.863-13.021-14.798-24.372-25.877-33.124v-19.319V25.752c0-3.372-2.223-6.341-5.459-7.288c-3.235-0.949-6.709,0.351-8.53,3.189
	l-19.754,30.814c-6.79-2.941-14.271-4.579-22.13-4.579c-7.859,0-15.339,1.639-22.13,4.579l-19.754-30.814
	c-1.82-2.839-5.294-4.138-8.53-3.189c-3.237,0.948-5.46,3.916-5.46,7.288v78.008v21.53c-10.099,8.64-18.225,19.519-23.607,31.861
	l-28.183-6.022c-9.6-2.051-17.332-8.786-20.681-18.015L114.38,93.542c-7.911-21.799-25.08-38.467-47.102-45.732l-32.407-10.69
	c-3.982-1.312-8.278,0.85-9.592,4.834c-1.313,3.984,0.85,8.278,4.834,9.592l32.407,10.69c17.571,5.796,31.269,19.095,37.581,36.488
	l14.362,39.572c5.148,14.185,17.031,24.536,31.788,27.688l26.492,5.66c-1.592,6.616-2.441,13.519-2.441,20.616v25.764h-3.644
	c-10.19,0-18.682,7.344-20.499,17.014l-22.414,4.477c-16.17,3.23-29.388,14.335-35.356,29.707l-17.236,44.394
	c-3.653,9.41-11.281,16.513-20.927,19.488L5.359,346.94c-4.008,1.237-6.256,5.488-5.02,9.496c1.007,3.263,4.01,5.359,7.256,5.359
	c0.741,0,1.496-0.109,2.24-0.339l44.867-13.836c14.11-4.351,25.268-14.741,30.612-28.506l17.235-44.394
	c4.079-10.509,13.116-18.101,24.169-20.309l19.067-3.808v116.56l-22.043,4.403c-16.17,3.229-29.388,14.335-35.356,29.707
	l-17.235,44.393c-3.653,9.41-11.281,16.513-20.927,19.488L5.359,478.991c-4.008,1.237-6.256,5.488-5.02,9.496
	c1.007,3.263,4.01,5.359,7.256,5.359c0.741,0,1.496-0.109,2.24-0.339l44.867-13.836c14.11-4.351,25.268-14.741,30.612-28.506
	l17.235-44.394c4.079-10.509,13.116-18.101,24.169-20.309l19.067-3.808v15.068c0,47.054,38.281,85.336,85.336,85.336h50.586
	c47.054,0,85.336-38.281,85.336-85.336V382.82l18.24,3.643c11.055,2.209,20.09,9.8,24.17,20.309l17.235,44.394
	c5.344,13.765,16.501,24.155,30.612,28.506l44.867,13.836c0.745,0.23,1.499,0.339,2.24,0.339c3.245,0,6.249-2.096,7.256-5.359
	C512.897,484.478,510.65,480.226,506.641,478.991z M297.767,51.673v13.848c-1.736-1.846-3.591-3.576-5.561-5.173L297.767,51.673z
	 M216.402,51.673l5.561,8.675c-1.97,1.597-3.825,3.328-5.561,5.173V51.673z M216.402,103.76c0-22.432,18.25-40.682,40.682-40.682
	s40.682,18.25,40.682,40.682v9.658c-11.849-5.936-25.21-9.284-39.341-9.284c-15.207,0-29.525,3.873-42.024,10.681L216.402,103.76
	L216.402,103.76z M185.49,192.26c0-23.011,10.724-43.553,27.422-56.931c0.399-0.257,0.772-0.551,1.115-0.877
	c12.307-9.475,27.702-15.128,44.399-15.128c15.614,0,30.085,4.948,41.962,13.335c0.37,0.321,0.771,0.607,1.198,0.853
	c18.042,13.291,29.776,34.671,29.776,58.748v25.764H185.49V192.26z M256.413,269.546l-36.331-36.33h72.661L256.413,269.546z
	 M160.976,397.723V238.895c0-3.132,2.548-5.68,5.68-5.68h31.945l50.217,50.217v184.435H231.12
	C192.443,467.868,160.976,436.401,160.976,397.723z M281.707,467.868h-17.698V283.433l50.217-50.217h31.944
	c3.132,0,5.68,2.548,5.68,5.68v2.628c0,0.016,0,0.033,0,0.05v132.001c0,0.016,0,0.033,0,0.05v24.099
	C351.852,436.401,320.385,467.868,281.707,467.868z"/>
<path d="M258.427,128.99c-29.21,0-52.975,23.764-52.975,52.976v18.798c0,4.195,3.401,7.595,7.595,7.595s7.595-3.401,7.595-7.595
	v-18.798c0-20.834,16.95-37.785,37.784-37.785c4.195,0,7.595-3.401,7.595-7.595S262.621,128.99,258.427,128.99z"/>
<path d="M195.533,381.729v-93.056c0-4.195-3.401-7.595-7.595-7.595s-7.595,3.401-7.595,7.595v93.056
	c0,23.793,10.045,46.684,27.561,62.804c1.459,1.343,3.303,2.006,5.142,2.006c2.05,0,4.093-0.824,5.591-2.452
	c2.841-3.087,2.641-7.891-0.445-10.733C203.791,420.103,195.533,401.286,195.533,381.729z"/>
<g>
</g>
<g>
</g>
<g>
</g>
<g>
</g>
<g>
</g>
<g>
</g>
<g>
</g>
<g>
</g>
<g>
</g>
<g>
</g>
<g>
</g>
<g>
</g>
<g>
</g>
<g>
</g>
<g>
</g>
</svg>
