<?xml version="1.0" encoding="iso-8859-1"?>
<!-- Generator: Adobe Illustrator 19.0.0, SVG Export Plug-In . SVG Version: 6.00 Build 0)  -->
<svg version="1.1" id="Layer_1" xmlns="http://www.w3.org/2000/svg" xmlns:xlink="http://www.w3.org/1999/xlink" x="0px" y="0px"
	 viewBox="0 0 511.828 511.828" style="enable-background:new 0 0 511.828 511.828;" xml:space="preserve">
<g>
	<g>
		<g>
			<path d="M110.928,161.935c-14.114,0-25.6,11.486-25.6,25.6s11.486,25.6,25.6,25.6s25.6-11.486,25.6-25.6
				S125.042,161.935,110.928,161.935z"/>
			<path d="M401.061,161.935c-14.114,0-25.6,11.486-25.6,25.6s11.486,25.6,25.6,25.6c14.114,0,25.6-11.486,25.6-25.6
				S415.175,161.935,401.061,161.935z"/>
			<path d="M494.928,105.624c17.135-18.765,18.27-38.502,16.06-52.011c-2.799-17.195-18.893-29.065-36.531-27.051
				c-54.665,6.246-105.301,38.622-146.449,93.628c-22.161,29.619-35.857,57.941-42.027,72.09c-3.558-9.156-7.859-16.7-12.894-21.973
				c5.854-32.333,25.455-95.377,50.466-93.722c4.745,0.341,8.764-3.268,9.062-7.97c0.307-4.702-3.26-8.755-7.97-9.062
				c-42.479-2.739-62.14,76.809-67.371,102.562c-0.486-0.034-0.947-0.179-1.442-0.179c-0.486,0-0.947,0.145-1.434,0.179
				c-5.24-25.771-24.943-105.404-67.379-102.562c-4.702,0.307-8.269,4.361-7.97,9.062c0.307,4.702,4.386,8.311,9.062,7.97
				c24.294-1.724,43.682,55.962,50.475,93.713c-5,5.248-9.276,12.723-12.817,21.794c-6.212-14.217-19.883-42.419-41.95-71.902
				C142.68,65.185,92.035,32.809,37.37,26.563C19.664,24.515,3.638,36.419,0.839,53.613c-2.21,13.517-1.067,33.254,16.06,52.011
				l0.026,115.396c-0.077,1.033-1.749,25.6,14.626,43.281c10.522,11.349,25.685,17.101,45.082,17.101h64.606l-41.463,8.892
				c-1.015,0.307-25.062,7.774-30.694,29.559c-4.335,16.777,3.652,36.233,23.74,57.899l-15.966,63.846
				c-2.406,10.342-0.777,32.222,22.622,41.02c5.154,1.937,10.607,2.876,16.111,2.876c11.409,0,23.049-4.062,32.657-11.776
				c14.618-11.733,34.97-31.889,48.905-61.252c4.215-8.892,18.807-43.793,26.914-63.292c7.168,20.745,17.809,34.628,31.77,34.628
				c14.02,0,24.687-13.969,31.855-34.825c8.09,19.456,22.758,54.562,26.991,63.488c13.935,29.363,34.287,49.519,48.905,61.252
				c9.609,7.714,21.248,11.776,32.657,11.776c5.504,0,10.965-0.939,16.111-2.876c23.398-8.798,25.028-30.677,22.588-41.156
				l-15.923-63.71c20.079-21.666,28.066-41.122,23.731-57.899c-5.623-21.786-29.67-29.252-31.369-29.73l-40.695-8.721h64.512
				c19.396,0,34.569-5.751,45.082-17.101c16.384-17.681,14.703-42.249,14.652-42.633V105.624z M110.928,230.202
				c-23.526,0-42.667-19.14-42.667-42.667c0-23.526,19.14-42.667,42.667-42.667c23.526,0,42.667,19.14,42.667,42.667
				C153.594,211.062,134.454,230.202,110.928,230.202z M174.288,348.858c-15.369,7.219-20.156,34.167-20.702,43.947
				c-0.256,4.54-4.019,8.064-8.516,8.064c-0.162,0-0.316-0.008-0.478-0.017c-4.693-0.256-8.303-4.267-8.055-8.969
				c0.102-1.852,2.731-45.431,30.498-58.47c4.267-2.005,9.344-0.171,11.349,4.096S178.554,346.853,174.288,348.858z
				 M255.832,366.736c-8.687,0-25.6-33.135-25.6-93.867s16.913-93.867,25.6-93.867c8.695,0,25.6,33.135,25.6,93.867
				S264.528,366.736,255.832,366.736z M375.452,391.883c0.247,4.702-3.362,8.713-8.055,8.969c-0.162,0.009-0.316,0.017-0.478,0.017
				c-4.497,0-8.26-3.524-8.516-8.064c-0.538-9.779-5.333-36.727-20.702-43.947c-4.267-2.005-6.101-7.083-4.096-11.349
				c1.997-4.275,7.074-6.11,11.349-4.096C372.722,346.452,375.35,390.031,375.452,391.883z M401.061,230.202
				c-23.526,0-42.667-19.14-42.667-42.667c0-23.526,19.14-42.667,42.667-42.667c23.526,0,42.667,19.14,42.667,42.667
				C443.728,211.062,424.587,230.202,401.061,230.202z"/>
		</g>
	</g>
</g>
<g>
</g>
<g>
</g>
<g>
</g>
<g>
</g>
<g>
</g>
<g>
</g>
<g>
</g>
<g>
</g>
<g>
</g>
<g>
</g>
<g>
</g>
<g>
</g>
<g>
</g>
<g>
</g>
<g>
</g>
</svg>
