<?xml version="1.0" encoding="iso-8859-1"?>
<!-- Generator: Adobe Illustrator 19.0.0, SVG Export Plug-In . SVG Version: 6.00 Build 0)  -->
<svg version="1.1" id="Layer_1" xmlns="http://www.w3.org/2000/svg" xmlns:xlink="http://www.w3.org/1999/xlink" x="0px" y="0px"
	 viewBox="0 0 259.728 259.728" style="enable-background:new 0 0 259.728 259.728;" xml:space="preserve">
<g>
	<path style="fill:#1D1D1B;" d="M139.02,91.273c0.522,0.08,1.125,0.442,1.768,0.924c2.733-2.773,5.505-5.586,8.318-8.359
		c-2.853-2.692-5.666-5.385-8.479-8.118c-2.773,2.572-5.505,5.144-8.278,7.675c-0.442,0.362-1.005-0.201-0.643-0.643
		c2.451-2.813,4.983-5.586,7.515-8.359c-1.165-1.165-2.411-2.331-3.576-3.456c-0.603-0.563,0.281-1.407,0.844-0.884
		c1.206,1.125,2.492,2.17,3.697,3.295c3.777-4.139,7.675-8.238,11.654-12.257c-0.522-0.442-1.005-0.884-1.487-1.366
		c-0.884-0.804,0.402-2.09,1.286-1.286c0.522,0.442,1.045,0.884,1.527,1.286c4.621-4.621,9.323-9.202,14.145-13.663
		c-1.206-1.246-2.371-2.532-3.576-3.777c-0.723-0.804,0.442-2.009,1.246-1.206c1.206,1.246,2.451,2.491,3.697,3.737
		c7.595-6.952,15.351-13.623,23.227-19.932c1.165-0.965,2.853,0.603,1.688,1.688c-7.394,6.952-14.869,13.904-22.303,20.856
		c2.893,2.853,5.787,5.746,8.68,8.68c5.264-4.3,10.649-8.399,16.074-12.337c-2.492-2.733-4.943-5.506-7.475-8.238
		c-0.442-0.482,0.241-1.165,0.723-0.723c2.773,2.612,5.465,5.264,8.158,7.997c4.702-3.335,9.484-6.59,14.306-9.564
		c1.125-0.723,2.492,1.005,1.447,1.889c-4.38,3.536-8.76,7.033-13.1,10.529c2.371,2.532,4.702,5.063,6.952,7.675
		c3.094-2.853,6.189-5.706,9.283-8.56c1.125-1.005,2.813,0.643,1.688,1.728c-3.054,2.974-6.148,5.907-9.243,8.841
		c2.451,2.893,4.863,5.867,7.193,8.841c5.104-4.34,10.288-8.64,15.512-12.779c1.206-0.924,2.934,0.683,1.768,1.768
		c-5.104,4.541-10.167,9.122-15.23,13.663c0.482,0.643,0.965,1.206,1.407,1.849c0.482,0.603-0.563,1.366-1.045,0.804
		c-0.442-0.563-0.965-1.125-1.407-1.688c-4.621,4.139-9.203,8.278-13.784,12.417c2.893,3.215,5.746,6.43,8.479,9.725
		c6.51-5.867,13.221-11.493,20.093-16.597c1.045-0.804,2.331,0.924,1.407,1.808c-6.269,6.028-12.659,11.935-19.128,17.762
		c1.246,1.567,2.532,3.094,3.737,4.702c0.683,0.884-0.764,1.889-1.527,1.165c-1.407-1.326-2.773-2.733-4.179-4.099
		c-3.536,3.215-7.073,6.349-10.649,9.524c2.532,2.934,4.943,5.907,7.153,9.042c0.08,0.12,0.08,0.241,0.08,0.402
		c18.244-14.145,35.042-32.028,46.495-42.557c-0.121-0.12-0.241-0.201-0.362-0.362c-8.359-12.658-16.677-24.794-27.407-35.685
		c-4.863-4.943-10.006-9.604-15.311-14.105c-2.612-2.21-5.305-4.42-8.037-6.591c-1.326-1.085-4.742-5.063-6.631-6.791
		c-0.04,0.08-0.04,0.161-0.08,0.201c-29.255,24.111-97.169,58.792-67.512,106.412c20.495,32.872,50.554,21.057,77.599,0.442
		c-0.121-0.04-0.281-0.08-0.402-0.201c-2.612-2.733-5.264-5.385-7.917-8.077c-3.617,3.215-7.153,6.43-10.73,9.645
		c0.522,0.482,1.085,0.965,1.648,1.447c0.844,0.804-0.362,1.929-1.246,1.246c-0.603-0.482-1.165-1.005-1.768-1.487
		c-1.447,1.326-2.934,2.612-4.38,3.938c-0.563,0.522-1.366-0.281-0.844-0.884c1.246-1.366,2.572-2.773,3.858-4.179
		c-3.858-3.134-7.716-6.269-11.453-9.524c-4.179,3.737-8.318,7.474-12.458,11.252c-0.522,0.522-1.246-0.241-0.764-0.764
		c0.924-1.005,1.929-2.009,2.893-3.054c-0.04,0-0.12,0.04-0.161,0c-3.376-2.492-6.671-5.063-9.886-7.716
		c-1.607,1.447-3.175,2.934-4.782,4.38c-0.563,0.522-1.447-0.322-0.844-0.884c1.487-1.487,3.014-2.934,4.501-4.38
		c-0.965-0.844-1.969-1.648-2.974-2.492c-2.853-2.451-7.033-5.304-9.886-8.479c-0.281,0-0.522-0.281-0.482-0.603
		c-0.683-0.804-1.286-1.648-1.728-2.491c-0.161-0.281-0.121-0.643,0.121-0.884c0.522-0.522,0.643-0.603,1.366-0.402
		C139.744,90.188,139.663,91.273,139.02,91.273z M258.091,69.694c1.366,0.402,2.331,2.13,1.005,3.335
		c-27.608,24.995-82.742,91.784-123.33,54.17c-17.642,19.611-38.257,36.971-56.983,55.577c0.723,1.045,1.206,2.13,1.165,3.175
		c-0.04,0.201-0.121,0.322-0.161,0.482c0.121,0.522,0.08,1.125-0.402,1.607c-10.408,10.971-20.374,22.303-30.22,33.756
		c-7.675,8.921-14.909,20.213-24.111,27.567c-6.751,5.385-17.802,6.791-20.816-0.402c-10.85-7.997,1.808-19.169,8.238-25.558
		c16.958-16.878,34.439-34.962,54.211-48.625c0.161-0.241,0.402-0.442,0.683-0.523c0.08-0.04,0.161-0.08,0.241-0.161
		c0.482-0.322,0.924,0,1.085,0.442c0.764,0.442,1.527,0.884,2.291,1.366c16.717-20.414,36.609-40.788,57.064-57.466
		C93.812,71.663,161.323,27.941,195.12,6.642c0-0.362,0.161-0.683,0.522-0.723c7.876-1.406,24.835,16.998,30.099,21.981
		c12.417,11.774,24.594,25.558,32.149,41.03C258.01,69.211,258.05,69.453,258.091,69.694z M214.77,65.193
		c-2.411-2.853-4.863-5.706-7.314-8.559c-4.621,4.42-9.323,8.761-13.985,13.141c2.451,2.572,4.903,5.144,7.274,7.756
		C205.367,73.351,210.028,69.252,214.77,65.193z M205.729,54.584c-2.331-2.612-4.662-5.224-6.992-7.836
		c-5.224,4.179-10.448,8.318-15.672,12.458c2.893,2.853,5.746,5.747,8.559,8.68C196.325,63.465,200.987,58.964,205.729,54.584z
		 M209.426,92.077c-3.054-3.094-6.028-6.229-9.002-9.403c-3.456,3.134-6.912,6.309-10.368,9.444c3.215,3.134,6.269,6.39,9.243,9.685
		C202.594,98.507,205.97,95.252,209.426,92.077z M198.053,80.102c-2.411-2.612-4.782-5.264-7.193-7.876
		c-3.697,3.456-7.394,6.872-11.132,10.328c2.693,2.371,5.345,4.822,7.957,7.274C191.101,86.572,194.557,83.317,198.053,80.102z
		 M196.928,104.173c-3.175-3.215-6.39-6.43-9.645-9.564c-3.778,3.456-7.595,6.912-11.413,10.368
		c3.697,3.215,7.354,6.47,11.011,9.725C190.177,111.165,193.512,107.629,196.928,104.173z M189.092,70.256
		c-2.733-3.094-5.505-6.189-8.238-9.283c-4.541,3.617-9.001,7.233-13.502,10.85c3.536,3.014,7.073,6.028,10.569,9.122
		C181.657,77.369,185.354,73.793,189.092,70.256z M185.033,92.439c-2.572-2.532-5.184-5.063-7.796-7.555
		c-3.938,3.617-7.916,7.193-11.855,10.81c2.893,2.532,5.787,5.104,8.68,7.675C177.679,99.672,181.336,96.015,185.033,92.439z
		 M175.509,83.236c-3.416-3.255-6.832-6.47-10.288-9.685c-4.34,3.496-8.64,6.992-12.9,10.529c3.898,3.456,7.716,6.952,11.654,10.368
		C167.834,90.711,171.611,86.933,175.509,83.236z M177.96,57.759c-2.693-3.014-5.425-6.028-8.117-8.961
		c-4.742,4.38-9.484,8.72-14.186,13.06c2.893,2.532,5.827,5.023,8.841,7.555C168.919,65.434,173.379,61.536,177.96,57.759z
		 M172.415,105.017c-2.934-2.572-5.867-5.144-8.76-7.756c-2.773,2.532-5.546,5.063-8.319,7.635c3.135,2.532,6.309,5.104,9.484,7.635
		c0.08,0.08,0.08,0.201,0.12,0.322C167.432,110.241,169.883,107.589,172.415,105.017z M162.609,71.1
		c-2.813-2.612-5.626-5.224-8.479-7.836c-4.139,3.818-8.278,7.635-12.377,11.453c2.893,2.612,5.827,5.184,8.72,7.756
		C154.452,78.655,158.47,74.837,162.609,71.1z M154.17,103.932c2.692-2.612,5.425-5.264,8.118-7.876
		c-3.858-3.536-7.716-7.073-11.493-10.689c-3.054,2.532-6.068,5.063-9.042,7.635c1.567,1.407,3.215,3.255,4.139,4.059
		c2.009,1.728,3.978,3.376,5.988,5.063C152.643,102.726,153.407,103.329,154.17,103.932z M134.64,126.114
		c-1.607-1.567-3.175-3.255-4.742-5.144c-0.281-0.402-0.522-0.764-0.804-1.125c-17.722,19.691-36.89,39.101-55.898,57.546
		c0.764,0.603,1.567,1.165,2.291,1.849c0.362,0.322,0.723,0.683,1.125,1.085C95.178,161.88,113.744,141.948,134.64,126.114z
		 M76.291,186.152c-0.362-0.482-0.643-1.005-1.005-1.567c-0.683-1.005-1.447-1.969-2.25-2.853c-1.728-1.969-3.657-3.577-5.827-4.983
		c-2.773,2.853-5.586,5.626-8.479,8.359c0.402,0.04,0.723,0.522,0.362,0.844c-1.286,1.005-2.652,1.728-4.059,2.532
		c-6.751,6.189-13.663,12.257-20.334,18.526c-5.787,5.465-29.979,23.75-30.059,35.363c8.318,8.881,15.27,9.363,20.856,1.406
		c2.13-2.451,4.26-4.903,6.309-7.354c4.903-5.747,9.765-11.533,14.708-17.28C56.158,207.892,66.043,196.881,76.291,186.152z"/>
	<path style="fill:#CCECF8;" d="M254.795,70.738c0.121,0.161,0.241,0.241,0.362,0.362c-11.453,10.529-28.251,28.411-46.495,42.557
		c0-0.161,0-0.281-0.08-0.402c-2.21-3.134-4.621-6.108-7.153-9.042c3.577-3.175,7.113-6.309,10.649-9.524
		c1.406,1.366,2.773,2.773,4.179,4.099c0.764,0.723,2.21-0.281,1.527-1.165c-1.206-1.607-2.492-3.134-3.737-4.702
		c6.47-5.827,12.859-11.734,19.128-17.762c0.924-0.884-0.362-2.612-1.407-1.808c-6.872,5.104-13.583,10.73-20.093,16.597
		c-2.733-3.295-5.586-6.51-8.479-9.725c4.581-4.139,9.162-8.278,13.784-12.417c0.442,0.563,0.964,1.125,1.407,1.688
		c0.482,0.563,1.527-0.201,1.045-0.804c-0.442-0.643-0.924-1.206-1.407-1.849c5.063-4.541,10.127-9.122,15.23-13.663
		c1.165-1.085-0.563-2.692-1.768-1.768c-5.224,4.139-10.408,8.439-15.512,12.779c-2.331-2.974-4.742-5.947-7.193-8.841
		c3.094-2.934,6.189-5.867,9.243-8.841c1.125-1.085-0.563-2.733-1.688-1.728c-3.094,2.853-6.189,5.706-9.283,8.56
		c-2.25-2.612-4.581-5.144-6.952-7.675c4.34-3.496,8.72-6.992,13.1-10.529c1.045-0.884-0.322-2.612-1.447-1.889
		c-4.822,2.974-9.604,6.229-14.306,9.564c-2.692-2.733-5.385-5.385-8.158-7.997c-0.482-0.442-1.165,0.241-0.723,0.723
		c2.532,2.733,4.983,5.505,7.475,8.238c-5.425,3.938-10.81,8.037-16.074,12.337c-2.893-2.934-5.787-5.827-8.68-8.68
		c7.434-6.952,14.909-13.904,22.303-20.856c1.165-1.085-0.522-2.652-1.688-1.688c-7.876,6.309-15.632,12.98-23.227,19.932
		c-1.246-1.246-2.492-2.491-3.697-3.737c-0.804-0.804-1.969,0.402-1.246,1.206c1.205,1.246,2.371,2.532,3.576,3.777
		c-4.822,4.461-9.524,9.042-14.145,13.663c-0.482-0.402-1.005-0.844-1.527-1.286c-0.884-0.804-2.17,0.482-1.286,1.286
		c0.482,0.482,0.965,0.924,1.487,1.366c-3.978,4.019-7.876,8.118-11.654,12.257c-1.206-1.125-2.492-2.17-3.697-3.295
		c-0.563-0.522-1.447,0.321-0.844,0.884c1.165,1.125,2.411,2.291,3.576,3.456c-2.532,2.773-5.063,5.546-7.515,8.359
		c-0.362,0.442,0.201,1.005,0.643,0.643c2.773-2.532,5.505-5.104,8.278-7.675c2.813,2.733,5.626,5.425,8.479,8.118
		c-2.813,2.773-5.586,5.586-8.318,8.359c-0.643-0.482-1.246-0.844-1.768-0.924c0.643,0,0.723-1.085,0.08-1.246
		c-0.723-0.201-0.844-0.121-1.366,0.402c-0.241,0.241-0.281,0.603-0.121,0.884c0.442,0.844,1.045,1.688,1.728,2.491
		c-0.04,0.322,0.201,0.603,0.482,0.603c2.853,3.175,7.033,6.028,9.886,8.479c1.005,0.844,2.009,1.648,2.974,2.492
		c-1.487,1.447-3.014,2.893-4.501,4.38c-0.603,0.563,0.281,1.407,0.844,0.884c1.607-1.447,3.175-2.934,4.782-4.38
		c3.215,2.652,6.51,5.224,9.886,7.716c0.04,0.04,0.12,0,0.161,0c-0.964,1.045-1.969,2.049-2.893,3.054
		c-0.482,0.522,0.241,1.286,0.764,0.764c4.139-3.778,8.278-7.515,12.458-11.252c3.737,3.255,7.595,6.389,11.453,9.524
		c-1.286,1.407-2.612,2.813-3.858,4.179c-0.522,0.603,0.281,1.406,0.844,0.884c1.447-1.326,2.934-2.612,4.38-3.938
		c0.603,0.482,1.165,1.005,1.768,1.487c0.884,0.683,2.09-0.442,1.246-1.246c-0.563-0.482-1.125-0.965-1.648-1.447
		c3.577-3.215,7.113-6.43,10.73-9.645c2.652,2.692,5.305,5.345,7.917,8.077c0.121,0.12,0.281,0.161,0.402,0.201
		c-27.045,20.615-57.104,32.43-77.599-0.442c-29.657-47.62,38.257-82.3,67.512-106.412c0.04-0.04,0.04-0.121,0.08-0.201
		c1.889,1.728,5.305,5.706,6.631,6.791c2.733,2.17,5.425,4.38,8.037,6.591c5.305,4.501,10.448,9.162,15.311,14.105
		C238.118,45.944,246.437,58.08,254.795,70.738z M250.455,72.185c0.804-0.522,0.08-1.688-0.764-1.286
		c-2.451,1.085-4.059,2.893-5.063,5.345c-0.362,0.804,1.005,1.366,1.406,0.603C247.08,74.918,248.607,73.351,250.455,72.185z
		 M244.387,72.868c0.402-0.482-0.281-1.165-0.683-0.683c-1.045,1.125-2.009,2.331-3.014,3.536c-0.362,0.442,0.241,1.085,0.643,0.643
		C242.378,75.199,243.423,74.074,244.387,72.868z M205.889,23.239c0.603,0.683,1.487-0.281,0.924-0.924
		c-1.889-2.331-4.059-4.139-6.671-5.666c-0.723-0.402-1.366,0.723-0.643,1.165C201.831,19.381,203.96,21.23,205.889,23.239z
		 M161.404,127.199c1.125-0.161,0.844-2.049-0.281-1.969c-1.607,0.121-3.175,0-4.742-0.362c-1.246-0.322-1.728,1.487-0.522,1.889
		C157.707,127.36,159.475,127.481,161.404,127.199z M160.359,131.539c0.844-0.201,0.683-1.607-0.201-1.527
		c-3.014,0.281-5.988-0.04-8.72-1.286c-0.964-0.442-1.808,0.924-0.844,1.406C153.688,131.7,156.943,132.303,160.359,131.539z"/>
	<path style="fill:#1D1D1B;" d="M249.692,70.899c0.844-0.402,1.567,0.764,0.764,1.286c-1.849,1.165-3.376,2.733-4.42,4.662
		c-0.402,0.764-1.768,0.201-1.406-0.603C245.633,73.793,247.24,71.984,249.692,70.899z"/>
	<path style="fill:#1D1D1B;" d="M243.704,72.185c0.402-0.482,1.085,0.201,0.683,0.683c-0.964,1.206-2.009,2.331-3.054,3.496
		c-0.402,0.442-1.005-0.201-0.643-0.643C241.695,74.516,242.659,73.31,243.704,72.185z"/>
	<path style="fill:#CCECF8;" d="M207.457,56.633c2.451,2.853,4.903,5.706,7.314,8.559c-4.742,4.059-9.404,8.158-14.025,12.337
		c-2.371-2.612-4.822-5.184-7.274-7.756C198.134,65.394,202.835,61.054,207.457,56.633z"/>
	<path style="fill:#1D1D1B;" d="M206.814,22.315c0.563,0.643-0.322,1.607-0.924,0.924c-1.929-2.009-4.059-3.858-6.389-5.425
		c-0.723-0.442-0.08-1.567,0.643-1.165C202.755,18.176,204.925,19.984,206.814,22.315z"/>
	<path style="fill:#CCECF8;" d="M198.736,46.748c2.331,2.612,4.661,5.224,6.992,7.836c-4.742,4.38-9.403,8.881-14.105,13.302
		c-2.813-2.934-5.666-5.827-8.559-8.68C188.288,55.066,193.512,50.927,198.736,46.748z"/>
	<path style="fill:#CCECF8;" d="M200.424,82.674c2.974,3.175,5.947,6.309,9.002,9.403c-3.456,3.175-6.832,6.43-10.127,9.725
		c-2.974-3.295-6.028-6.55-9.243-9.685C193.512,88.983,196.968,85.808,200.424,82.674z"/>
	<path style="fill:#CCECF8;" d="M190.86,72.225c2.411,2.612,4.782,5.264,7.193,7.876c-3.496,3.215-6.952,6.47-10.368,9.725
		c-2.612-2.451-5.264-4.903-7.957-7.274C183.466,79.097,187.163,75.681,190.86,72.225z"/>
	<path style="fill:#CCECF8;" d="M187.283,94.609c3.255,3.134,6.47,6.349,9.645,9.564c-3.416,3.456-6.751,6.992-10.046,10.529
		c-3.657-3.255-7.314-6.51-11.011-9.725C179.688,101.521,183.506,98.065,187.283,94.609z"/>
	<path style="fill:#CCECF8;" d="M180.854,60.973c2.733,3.094,5.506,6.189,8.238,9.283c-3.737,3.536-7.434,7.113-11.172,10.689
		c-3.496-3.094-7.033-6.108-10.569-9.122C171.852,68.207,176.313,64.59,180.854,60.973z"/>
	<path style="fill:#CCECF8;" d="M177.237,84.884c2.612,2.492,5.224,5.023,7.796,7.555c-3.697,3.576-7.354,7.233-10.971,10.93
		c-2.893-2.572-5.787-5.144-8.68-7.675C169.32,92.077,173.299,88.501,177.237,84.884z"/>
	<path style="fill:#CCECF8;" d="M165.221,73.551c3.456,3.215,6.872,6.43,10.288,9.685c-3.898,3.697-7.675,7.474-11.533,11.212
		c-3.938-3.416-7.756-6.912-11.654-10.368C156.582,80.544,160.881,77.048,165.221,73.551z"/>
	<path style="fill:#CCECF8;" d="M169.843,48.797c2.692,2.933,5.425,5.947,8.117,8.961c-4.581,3.777-9.042,7.675-13.462,11.654
		c-3.014-2.532-5.947-5.023-8.841-7.555C160.359,57.517,165.101,53.177,169.843,48.797z"/>
	<path style="fill:#CCECF8;" d="M163.654,97.261c2.893,2.612,5.827,5.184,8.76,7.756c-2.532,2.572-4.983,5.224-7.475,7.836
		c-0.04-0.12-0.04-0.241-0.12-0.322c-3.175-2.532-6.349-5.104-9.484-7.635C158.109,102.324,160.881,99.793,163.654,97.261z"/>
	<path style="fill:#CCECF8;" d="M154.13,63.264c2.853,2.612,5.666,5.224,8.479,7.836c-4.139,3.737-8.158,7.555-12.136,11.373
		c-2.893-2.572-5.827-5.144-8.72-7.756C145.852,70.899,149.991,67.082,154.13,63.264z"/>
	<path style="fill:#CCECF8;" d="M162.288,96.055c-2.693,2.612-5.425,5.264-8.118,7.876c-0.764-0.603-1.527-1.206-2.291-1.808
		c-2.009-1.688-3.978-3.336-5.988-5.063c-0.924-0.804-2.572-2.652-4.139-4.059c2.974-2.572,5.988-5.104,9.042-7.635
		C154.572,88.983,158.43,92.519,162.288,96.055z"/>
	<path style="fill:#1D1D1B;" d="M161.123,125.23c1.125-0.08,1.406,1.808,0.281,1.969c-1.929,0.281-3.697,0.161-5.546-0.442
		c-1.206-0.402-0.723-2.21,0.522-1.889C157.948,125.23,159.515,125.351,161.123,125.23z"/>
	<path style="fill:#1D1D1B;" d="M160.158,130.012c0.884-0.08,1.045,1.326,0.201,1.527c-3.416,0.764-6.671,0.161-9.765-1.406
		c-0.964-0.482-0.12-1.849,0.844-1.406C154.17,129.972,157.144,130.294,160.158,130.012z"/>
	<path style="fill:#CCECF8;" d="M129.898,120.971c1.567,1.889,3.135,3.577,4.742,5.144c-20.897,15.833-39.462,35.765-58.028,54.21
		c-0.402-0.402-0.763-0.763-1.125-1.085c-0.723-0.683-1.527-1.246-2.291-1.849c19.008-18.445,38.176-37.855,55.898-57.546
		C129.376,120.207,129.617,120.569,129.898,120.971z M123.549,128.847c0.723-0.884-0.442-2.049-1.286-1.286
		c-1.527,1.487-2.974,3.054-4.42,4.621c-0.723,0.804,0.402,1.969,1.206,1.206C120.575,131.901,122.102,130.414,123.549,128.847z"/>
	<path style="fill:#1D1D1B;" d="M122.263,127.561c0.844-0.764,2.009,0.402,1.286,1.286c-1.447,1.567-2.974,3.054-4.501,4.541
		c-0.804,0.763-1.929-0.402-1.206-1.206C119.289,130.615,120.736,129.048,122.263,127.561z"/>
	<path style="fill:#33B3E2;" d="M75.286,184.585c0.362,0.563,0.643,1.085,1.005,1.567c-10.247,10.73-20.133,21.74-29.778,32.992
		c-4.943,5.747-9.805,11.533-14.708,17.28c-2.049,2.451-4.179,4.903-6.309,7.354c-5.586,7.957-12.538,7.475-20.856-1.406
		c0.08-11.614,24.272-29.898,30.059-35.363c6.671-6.269,13.583-12.337,20.334-18.526c1.407-0.804,2.773-1.527,4.059-2.532
		c0.362-0.322,0.04-0.804-0.362-0.844c2.893-2.733,5.706-5.505,8.479-8.359c2.17,1.406,4.099,3.014,5.827,4.983
		C73.839,182.615,74.603,183.58,75.286,184.585z M65.882,185.428c0.563-0.723-0.643-1.688-1.286-1.005
		c-1.688,2.009-3.335,4.019-4.943,6.108c-0.643,0.764,0.442,1.929,1.125,1.125C62.507,189.608,64.235,187.558,65.882,185.428z
		 M60.618,187.478c0.482-0.603-0.281-1.447-0.844-0.844c-2.049,2.09-3.978,4.219-5.706,6.55c-0.402,0.563,0.442,1.165,0.924,0.723
		C57.001,191.898,58.85,189.728,60.618,187.478z M25.898,238.152c0.522-0.563-0.241-1.246-0.804-0.804
		c-2.049,1.607-4.541,2.532-7.113,2.572c-0.804,0.04-0.804,1.206,0,1.246C21.035,241.286,23.728,240.322,25.898,238.152z
		 M21.075,243.657c0.362-0.603-0.442-1.165-0.924-0.723c-2.411,2.17-5.988,2.291-8.278-0.08c-0.603-0.563-1.648,0.201-1.165,0.884
		C13.119,247.154,18.865,247.395,21.075,243.657z"/>
	<path style="fill:#1D1D1B;" d="M64.597,184.424c0.643-0.683,1.848,0.281,1.286,1.005c-1.648,2.13-3.376,4.179-5.104,6.229
		c-0.683,0.804-1.768-0.362-1.125-1.125C61.261,188.442,62.909,186.433,64.597,184.424z"/>
	<path style="fill:#1D1D1B;" d="M59.774,186.634c0.563-0.603,1.326,0.241,0.844,0.844c-1.768,2.25-3.617,4.421-5.626,6.43
		c-0.482,0.442-1.326-0.161-0.924-0.723C55.796,190.853,57.725,188.724,59.774,186.634z"/>
	<path style="fill:#1D1D1B;" d="M25.094,237.348c0.563-0.442,1.326,0.241,0.804,0.804c-2.17,2.17-4.862,3.134-7.917,3.014
		c-0.804-0.04-0.804-1.206,0-1.246C20.553,239.88,23.045,238.956,25.094,237.348z"/>
	<path style="fill:#1D1D1B;" d="M20.151,242.934c0.482-0.442,1.286,0.121,0.924,0.723c-2.21,3.737-7.957,3.496-10.368,0.08
		c-0.482-0.683,0.563-1.447,1.165-0.884C14.164,245.225,17.74,245.104,20.151,242.934z"/>
</g>
<g>
</g>
<g>
</g>
<g>
</g>
<g>
</g>
<g>
</g>
<g>
</g>
<g>
</g>
<g>
</g>
<g>
</g>
<g>
</g>
<g>
</g>
<g>
</g>
<g>
</g>
<g>
</g>
<g>
</g>
</svg>
