<?xml version="1.0" encoding="iso-8859-1"?>
<!-- Generator: Adobe Illustrator 19.0.0, SVG Export Plug-In . SVG Version: 6.00 Build 0)  -->
<svg version="1.1" id="Layer_1" xmlns="http://www.w3.org/2000/svg" xmlns:xlink="http://www.w3.org/1999/xlink" x="0px" y="0px"
	 viewBox="0 0 512 512" style="enable-background:new 0 0 512 512;" xml:space="preserve">
<g>
	<g>
		<path d="M479.002,258.073c-0.305-0.392-0.628-0.776-0.989-1.137L341.936,120.844c-0.938-0.936-2.056-2.556-2.056-4.945
			c0-0.188,0.013-0.406,0.043-0.698c0.338-3.35,3.146-5.875,6.529-5.875c1.761,0,3.417,0.685,4.661,1.929l19.254,19.243
			c11.821,11.82,27.481,17.503,43.003,17.082l46.872,31.157c4.436,3.98,10.107,6.162,16.125,6.162c0,0,0,0,0.012,0
			c6.474,0,12.564-2.53,17.156-7.109c9.112-9.124,9.435-23.762,0.947-33.269l-26.337-39.613c1.417-5.083,2.165-10.386,2.165-15.807
			c0-15.638-6.09-30.34-17.148-41.397c-0.944-0.944-31.899-29.801-32.522-30.321C395.409-3.547,353.131,1.07,346.019,2.027
			C283.63,2.492,233.023,53.395,233.023,115.898c0,30.412,11.846,59.008,33.357,80.518l80.572,80.581H146.077
			c-31.567-0.086-57.222-25.791-57.222-57.377c0-6.62-5.369-11.989-11.989-11.989c-2.59,0-4.981,0.83-6.942,2.226l-0.005-0.011
			C26.136,240.948,0,291.529,0,345.18c0,91.476,74.415,165.891,165.891,165.891h203.201c55.497,0,103.105-38.808,114.47-92.747
			C501.917,396.684,512,369.265,512,340.732C512,309.703,500.305,280.481,479.002,258.073z M453.164,130.5
			c0.647-0.647,1.274-1.309,1.887-1.982l20.023,30.102c0.432,0.659,0.947,1.283,1.499,1.846
			c0.108,0.096-33.479-21.918-33.479-21.918C446.666,136.284,450.052,133.612,453.164,130.5z M463.493,404.849
			c-1.487,1.654-2.482,3.681-2.877,5.875c-8.009,44.251-46.505,76.37-91.524,76.37H165.891
			c-78.252,0-141.913-63.661-141.913-141.913c0-39.066,16.215-76.233,44.152-102.834c9.694,33.266,40.091,57.773,76.252,58.588
			c0.283,0.02,0.563,0.043,0.851,0.043h0.843c0.053,0,0.105,0.004,0.158,0.004c0.026,0,229.576-0.004,229.576-0.004
			c0.028,0,0.056,0.004,0.084,0.004c3.068,0,6.136-1.171,8.476-3.512c4.683-4.68,4.683-12.272,0.001-16.955L283.334,179.461
			c-16.982-16.981-26.335-39.555-26.335-63.564c0-49.57,40.322-89.897,89.885-89.897c0.614,0,11.659-1.59,23.702-0.93
			c10.631,0.581,25.288,2.922,34.787,10.81c0.151,0.158,30.284,28.227,30.836,28.778c6.529,6.528,10.125,15.208,10.125,24.442
			c0,2.829-0.342,5.606-0.997,8.287l-23.492-23.494c-4.676-4.676-12.265-4.676-16.952,0c-4.676,4.688-4.676,12.277,0,16.952
			l26.619,26.619c-13.471,9.385-32.18,8.084-44.189-3.924l-19.257-19.245c-5.773-5.77-13.449-8.949-21.612-8.949
			c-15.74,0-28.803,11.796-30.382,27.407c-0.114,1.09-0.169,2.12-0.169,3.143c0,11.162,5.691,18.515,9.08,21.903l134.086,134.1
			c0.252,0.307,0.519,0.604,0.804,0.89c18.151,18.151,28.15,42.285,28.15,67.941C488.022,364.482,479.306,387.249,463.493,404.849z"
			/>
	</g>
</g>
<g>
	<g>
		<path d="M414.692,382.047c-6.62,0-11.989,5.369-11.989,11.989c0,26.202-21.316,47.519-47.519,47.519H250.953
			c-53.671,0-97.688-42.121-100.743-95.039h165.614c6.62,0,11.989-5.367,11.989-11.989c0-6.62-5.369-11.989-11.989-11.989H138.052
			c-6.62,0-11.989,5.369-11.989,11.989v6.116c0,68.865,56.024,124.89,124.89,124.89h104.231c39.423,0,71.497-32.074,71.497-71.497
			C426.681,387.415,421.313,382.047,414.692,382.047z"/>
	</g>
</g>
<g>
</g>
<g>
</g>
<g>
</g>
<g>
</g>
<g>
</g>
<g>
</g>
<g>
</g>
<g>
</g>
<g>
</g>
<g>
</g>
<g>
</g>
<g>
</g>
<g>
</g>
<g>
</g>
<g>
</g>
</svg>
